<?xml version="1.0" encoding="utf-8"?>
<!-- Generated by IcoMoon.io -->
<!DOCTYPE svg PUBLIC "-//W3C//DTD SVG 1.1//EN" "http://www.w3.org/Graphics/SVG/1.1/DTD/svg11.dtd">
<svg version="1.1" xmlns="http://www.w3.org/2000/svg" xmlns:xlink="http://www.w3.org/1999/xlink" width="48" height="48" viewBox="0 0 48 48">
<g>
</g>
	<path d="M37.922 19.205h-4.322v-3.36c0-6.953-3.202-11.040-9.6-11.040-6.396 0-9.6 4.087-9.6 11.040v3.36h-4.8c-1.325 0-2.4 1.553-2.4 2.88v18.72c0 1.32 1.030 2.734 2.285 3.137l2.87 0.929c1.255 0.406 3.362 0.737 4.685 0.737h13.92c1.32 0 3.43-0.331 4.685-0.737l2.87-0.929c1.258-0.403 2.285-1.817 2.285-3.137v-18.72c0-1.327-1.553-2.88-2.878-2.88zM19.2 14.885c0-3.468 1.915-5.28 4.8-5.28 2.887 0 4.8 1.812 4.8 5.28v4.32h-9.6v-4.32z" fill="#000000" />
</svg>
