<?xml version="1.0" encoding="utf-8"?>
<!-- Generated by IcoMoon.io -->
<!DOCTYPE svg PUBLIC "-//W3C//DTD SVG 1.1//EN" "http://www.w3.org/Graphics/SVG/1.1/DTD/svg11.dtd">
<svg version="1.1" xmlns="http://www.w3.org/2000/svg" xmlns:xlink="http://www.w3.org/1999/xlink" width="31" height="48" viewBox="0 0 31 48">
<g>
</g>
	<path d="M8.571 20.571h13.714v-5.143q0-2.839-2.009-4.848t-4.848-2.009-4.848 2.009-2.009 4.848v5.143zM30.857 23.143v15.429q0 1.071-0.75 1.821t-1.821 0.75h-25.714q-1.071 0-1.821-0.75t-0.75-1.821v-15.429q0-1.071 0.75-1.821t1.821-0.75h0.857v-5.143q0-4.929 3.536-8.464t8.464-3.536 8.464 3.536 3.536 8.464v5.143h0.857q1.071 0 1.821 0.75t0.75 1.821z" fill="#ffffff" />
</svg>
